<svg width="920" height="720" viewBox="0 0 920 720" fill="none" xmlns="http://www.w3.org/2000/svg">
  <rect width="920" height="720" rx="36" fill="#EAF8F5"/>
  <path d="M0 438C95 375 205 377 330 422C500 483 604 408 708 348C801 295 873 304 920 328V720H0V438Z" fill="#C8EEE7"/>
  <rect x="84" y="86" width="752" height="496" rx="32" fill="#FFFFFF" stroke="#DCE8EA" stroke-width="4"/>
  <rect x="124" y="126" width="280" height="392" rx="28" fill="#14233B"/>
  <rect x="149" y="154" width="230" height="326" rx="22" fill="#F8FAFC"/>
  <rect x="170" y="178" width="188" height="54" rx="14" fill="#0F766E"/>
  <circle cx="198" cy="205" r="14" fill="#FFFFFF"/>
  <rect x="224" y="194" width="108" height="9" rx="4.5" fill="#DDF7F1"/>
  <rect x="224" y="211" width="76" height="8" rx="4" fill="#B7ECE1"/>
  <rect x="170" y="252" width="188" height="78" rx="16" fill="#EFF6FF"/>
  <rect x="190" y="272" width="42" height="42" rx="10" fill="#0F766E"/>
  <path d="M202 293L210 301L223 284" stroke="white" stroke-width="5" stroke-linecap="round" stroke-linejoin="round"/>
  <rect x="246" y="276" width="82" height="10" rx="5" fill="#172033"/>
  <rect x="246" y="296" width="92" height="9" rx="4.5" fill="#94A3B8"/>
  <rect x="170" y="350" width="188" height="86" rx="16" fill="#FFF7ED"/>
  <rect x="194" y="374" width="70" height="10" rx="5" fill="#F59E0B"/>
  <rect x="194" y="397" width="134" height="10" rx="5" fill="#FDBA74"/>
  <rect x="463" y="142" width="286" height="80" rx="18" fill="#F8FAFC" stroke="#E2E8F0" stroke-width="3"/>
  <rect x="493" y="166" width="48" height="32" rx="9" fill="#16A34A"/>
  <rect x="558" y="164" width="132" height="12" rx="6" fill="#172033"/>
  <rect x="558" y="188" width="92" height="10" rx="5" fill="#94A3B8"/>
  <rect x="463" y="244" width="286" height="80" rx="18" fill="#F8FAFC" stroke="#E2E8F0" stroke-width="3"/>
  <rect x="493" y="268" width="48" height="32" rx="9" fill="#F59E0B"/>
  <rect x="558" y="266" width="146" height="12" rx="6" fill="#172033"/>
  <rect x="558" y="290" width="104" height="10" rx="5" fill="#94A3B8"/>
  <rect x="520" y="388" width="180" height="136" rx="20" fill="#0F766E"/>
  <rect x="546" y="414" width="34" height="34" rx="8" fill="#FFFFFF"/>
  <rect x="594" y="414" width="34" height="34" rx="8" fill="#FFFFFF"/>
  <rect x="642" y="414" width="34" height="34" rx="8" fill="#FFFFFF"/>
  <rect x="546" y="462" width="34" height="34" rx="8" fill="#FFFFFF"/>
  <rect x="594" y="462" width="34" height="34" rx="8" fill="#172033"/>
  <rect x="642" y="462" width="34" height="34" rx="8" fill="#FFFFFF"/>
  <circle cx="586" cy="610" r="70" fill="#F3B391"/>
  <path d="M518 594C530 528 637 526 654 592C625 575 554 576 518 594Z" fill="#172033"/>
  <path d="M502 684C514 633 550 606 589 606C628 606 660 634 673 684H502Z" fill="#0F766E"/>
  <circle cx="711" cy="618" r="62" fill="#8B5E4B"/>
  <path d="M650 606C660 548 748 548 770 606C734 592 688 592 650 606Z" fill="#243044"/>
  <path d="M634 684C646 641 678 616 714 616C750 616 780 642 792 684H634Z" fill="#F59E0B"/>
  <rect x="636" y="552" width="96" height="128" rx="22" fill="#172033" stroke="#FFFFFF" stroke-width="6"/>
  <rect x="652" y="576" width="64" height="70" rx="12" fill="#ECFEFF"/>
  <circle cx="684" cy="660" r="7" fill="#FFFFFF"/>
  <path d="M160 612C210 573 294 572 342 616" stroke="#0F766E" stroke-width="18" stroke-linecap="round"/>
  <circle cx="208" cy="568" r="42" fill="#F3B391"/>
  <path d="M167 562C174 516 239 512 256 558C230 546 193 548 167 562Z" fill="#25324A"/>
  <path d="M126 684C137 632 170 596 211 596C252 596 287 632 298 684H126Z" fill="#2563EB"/>
  <circle cx="322" cy="566" r="44" fill="#8B5E4B"/>
  <path d="M278 556C288 509 353 512 367 560C342 545 306 544 278 556Z" fill="#121826"/>
  <path d="M246 684C259 630 291 595 326 595C366 595 398 631 410 684H246Z" fill="#0F766E"/>
</svg>
